<svg xmlns="http://www.w3.org/2000/svg" viewBox="0 0 64 64">
  <defs>
    <radialGradient id="ocean" cx="35%" cy="30%" r="70%">
      <stop offset="0%" stop-color="#63d5ff" />
      <stop offset="55%" stop-color="#2a8cff" />
      <stop offset="100%" stop-color="#1f5dd9" />
    </radialGradient>
    <linearGradient id="land" x1="0%" x2="100%" y1="0%" y2="100%">
      <stop offset="0%" stop-color="#a7ef6b" />
      <stop offset="100%" stop-color="#4db84c" />
    </linearGradient>
  </defs>
  <circle cx="32" cy="32" r="29" fill="url(#ocean)" />
  <path
    fill="url(#land)"
    d="M20 12c3 0 4 3 7 3 4 0 6-4 10-4 6 0 11 5 11 11 0 2-1 4-3 5-2 2-3 4-3 7s3 5 3 9c0 8-6 14-14 14-3 0-6-1-8-3-2-2-4-2-6-2-7 0-13-6-13-13 0-5 3-9 7-11 2-1 3-3 3-5 0-3-2-5-2-8 0-6 4-10 8-10Z"
  />
  <path
    fill="url(#land)"
    d="M45 18c2 1 4 4 4 7 0 4-3 8-7 8-2 0-3-1-4-2-1-1-2-3-5-3-4 0-6 4-10 4-3 0-5-2-5-5 0-5 5-9 10-9 2 0 3 0 5 1 2 1 4 2 6 1 2 0 4-2 6-2Z"
  />
  <path
    fill="#d7f7ff"
    fill-opacity=".95"
    d="M18 7a30 30 0 0 0 0 50c-5-6-8-16-8-25s3-19 8-25Zm28 0c5 6 8 16 8 25s-3 19-8 25c3-6 5-16 5-25s-2-19-5-25Z"
  />
  <path
    fill="#d7f7ff"
    fill-opacity=".75"
    d="M7 31h50v2H7zm6-12h38v2H13zm0 24h38v2H13z"
  />
  <circle cx="32" cy="32" r="29" fill="none" stroke="#ffffff" stroke-opacity=".4" stroke-width="2" />
</svg>
